<svg xmlns="http://www.w3.org/2000/svg" viewBox="0 0 1660 420">
  <defs>
    <linearGradient id="bg" x1="0%" y1="0%" x2="100%" y2="100%">
      <stop offset="0%" style="stop-color:#1a1a2e"/>
      <stop offset="100%" style="stop-color:#16213e"/>
    </linearGradient>
  </defs>

  <!-- Background -->
  <rect width="1660" height="420" fill="url(#bg)"/>

  <!-- Timeline area: x=140 to x=1580 (1440px for 1440 ticks) -->

  <!-- Faint tick marks (every 90 ticks / half beat) -->
  <g stroke="#333" stroke-width="0.5">
    <line x1="140" y1="15" x2="140" y2="385"/>
    <line x1="230" y1="15" x2="230" y2="385"/>
    <line x1="320" y1="15" x2="320" y2="385"/>
    <line x1="410" y1="15" x2="410" y2="385"/>
    <line x1="500" y1="15" x2="500" y2="385"/>
    <line x1="590" y1="15" x2="590" y2="385"/>
    <line x1="680" y1="15" x2="680" y2="385"/>
    <line x1="770" y1="15" x2="770" y2="385"/>
    <line x1="860" y1="15" x2="860" y2="385"/>
    <line x1="950" y1="15" x2="950" y2="385"/>
    <line x1="1040" y1="15" x2="1040" y2="385"/>
    <line x1="1130" y1="15" x2="1130" y2="385"/>
    <line x1="1220" y1="15" x2="1220" y2="385"/>
    <line x1="1310" y1="15" x2="1310" y2="385"/>
    <line x1="1400" y1="15" x2="1400" y2="385"/>
    <line x1="1490" y1="15" x2="1490" y2="385"/>
    <line x1="1580" y1="15" x2="1580" y2="385"/>
  </g>

  <!-- Beat markers (every 180 ticks = every 180px) - brighter -->
  <g stroke="#555" stroke-width="1">
    <line x1="140" y1="10" x2="140" y2="390"/>
    <line x1="320" y1="10" x2="320" y2="390"/>
    <line x1="500" y1="10" x2="500" y2="390"/>
    <line x1="680" y1="10" x2="680" y2="390"/>
    <line x1="860" y1="10" x2="860" y2="390"/>
    <line x1="1040" y1="10" x2="1040" y2="390"/>
    <line x1="1220" y1="10" x2="1220" y2="390"/>
    <line x1="1400" y1="10" x2="1400" y2="390"/>
    <line x1="1580" y1="10" x2="1580" y2="390"/>
  </g>

  <!-- Beat numbers -->
  <g font-family="Arial, sans-serif" font-size="11" fill="#666" text-anchor="middle">
    <text x="140" y="405">1</text>
    <text x="320" y="405">2</text>
    <text x="500" y="405">3</text>
    <text x="680" y="405">4</text>
    <text x="860" y="405">5</text>
    <text x="1040" y="405">6</text>
    <text x="1220" y="405">7</text>
    <text x="1400" y="405">8</text>
  </g>

  <!-- Row 1: jam.every(1) - Red -->
  <rect x="140" y="20" width="1440" height="40" fill="#1a1a2e" fill-opacity="0.5"/>
  <text x="130" y="45" text-anchor="end" font-family="monospace" font-size="11" fill="#ff6b6b">every(1)</text>
  <g stroke="#ff6b6b" stroke-width="3">
    <line x1="140" y1="25" x2="140" y2="55"/>
    <line x1="320" y1="25" x2="320" y2="55"/>
    <line x1="500" y1="25" x2="500" y2="55"/>
    <line x1="680" y1="25" x2="680" y2="55"/>
    <line x1="860" y1="25" x2="860" y2="55"/>
    <line x1="1040" y1="25" x2="1040" y2="55"/>
    <line x1="1220" y1="25" x2="1220" y2="55"/>
    <line x1="1400" y1="25" x2="1400" y2="55"/>
  </g>

  <!-- Row 2: jam.every(2) - Orange -->
  <rect x="140" y="65" width="1440" height="40" fill="#0f3460" fill-opacity="0.3"/>
  <text x="130" y="90" text-anchor="end" font-family="monospace" font-size="11" fill="#ff9f43">every(2)</text>
  <g stroke="#ff9f43" stroke-width="3">
    <line x1="140" y1="70" x2="140" y2="100"/>
    <line x1="500" y1="70" x2="500" y2="100"/>
    <line x1="860" y1="70" x2="860" y2="100"/>
    <line x1="1220" y1="70" x2="1220" y2="100"/>
  </g>

  <!-- Row 3: jam.every(1/2) - Yellow -->
  <rect x="140" y="110" width="1440" height="40" fill="#1a1a2e" fill-opacity="0.5"/>
  <text x="130" y="135" text-anchor="end" font-family="monospace" font-size="11" fill="#feca57">every(1/2)</text>
  <g stroke="#feca57" stroke-width="2">
    <line x1="140" y1="115" x2="140" y2="145"/>
    <line x1="230" y1="115" x2="230" y2="145"/>
    <line x1="320" y1="115" x2="320" y2="145"/>
    <line x1="410" y1="115" x2="410" y2="145"/>
    <line x1="500" y1="115" x2="500" y2="145"/>
    <line x1="590" y1="115" x2="590" y2="145"/>
    <line x1="680" y1="115" x2="680" y2="145"/>
    <line x1="770" y1="115" x2="770" y2="145"/>
    <line x1="860" y1="115" x2="860" y2="145"/>
    <line x1="950" y1="115" x2="950" y2="145"/>
    <line x1="1040" y1="115" x2="1040" y2="145"/>
    <line x1="1130" y1="115" x2="1130" y2="145"/>
    <line x1="1220" y1="115" x2="1220" y2="145"/>
    <line x1="1310" y1="115" x2="1310" y2="145"/>
    <line x1="1400" y1="115" x2="1400" y2="145"/>
    <line x1="1490" y1="115" x2="1490" y2="145"/>
  </g>

  <!-- Row 4: jam.every(1/4) - Green (sixteenths) -->
  <rect x="140" y="155" width="1440" height="40" fill="#0f3460" fill-opacity="0.3"/>
  <text x="130" y="180" text-anchor="end" font-family="monospace" font-size="11" fill="#1dd1a1">every(1/4)</text>
  <g stroke="#1dd1a1" stroke-width="1.5">
    <line x1="140" y1="160" x2="140" y2="190"/>
    <line x1="185" y1="160" x2="185" y2="190"/>
    <line x1="230" y1="160" x2="230" y2="190"/>
    <line x1="275" y1="160" x2="275" y2="190"/>
    <line x1="320" y1="160" x2="320" y2="190"/>
    <line x1="365" y1="160" x2="365" y2="190"/>
    <line x1="410" y1="160" x2="410" y2="190"/>
    <line x1="455" y1="160" x2="455" y2="190"/>
    <line x1="500" y1="160" x2="500" y2="190"/>
    <line x1="545" y1="160" x2="545" y2="190"/>
    <line x1="590" y1="160" x2="590" y2="190"/>
    <line x1="635" y1="160" x2="635" y2="190"/>
    <line x1="680" y1="160" x2="680" y2="190"/>
    <line x1="725" y1="160" x2="725" y2="190"/>
    <line x1="770" y1="160" x2="770" y2="190"/>
    <line x1="815" y1="160" x2="815" y2="190"/>
    <line x1="860" y1="160" x2="860" y2="190"/>
    <line x1="905" y1="160" x2="905" y2="190"/>
    <line x1="950" y1="160" x2="950" y2="190"/>
    <line x1="995" y1="160" x2="995" y2="190"/>
    <line x1="1040" y1="160" x2="1040" y2="190"/>
    <line x1="1085" y1="160" x2="1085" y2="190"/>
    <line x1="1130" y1="160" x2="1130" y2="190"/>
    <line x1="1175" y1="160" x2="1175" y2="190"/>
    <line x1="1220" y1="160" x2="1220" y2="190"/>
    <line x1="1265" y1="160" x2="1265" y2="190"/>
    <line x1="1310" y1="160" x2="1310" y2="190"/>
    <line x1="1355" y1="160" x2="1355" y2="190"/>
    <line x1="1400" y1="160" x2="1400" y2="190"/>
    <line x1="1445" y1="160" x2="1445" y2="190"/>
    <line x1="1490" y1="160" x2="1490" y2="190"/>
    <line x1="1535" y1="160" x2="1535" y2="190"/>
  </g>

  <!-- Row 5: jam.every(1/3) - Cyan (triplets) -->
  <rect x="140" y="200" width="1440" height="40" fill="#1a1a2e" fill-opacity="0.5"/>
  <text x="130" y="225" text-anchor="end" font-family="monospace" font-size="11" fill="#54a0ff">every(1/3)</text>
  <g stroke="#54a0ff" stroke-width="2">
    <line x1="140" y1="205" x2="140" y2="235"/>
    <line x1="200" y1="205" x2="200" y2="235"/>
    <line x1="260" y1="205" x2="260" y2="235"/>
    <line x1="320" y1="205" x2="320" y2="235"/>
    <line x1="380" y1="205" x2="380" y2="235"/>
    <line x1="440" y1="205" x2="440" y2="235"/>
    <line x1="500" y1="205" x2="500" y2="235"/>
    <line x1="560" y1="205" x2="560" y2="235"/>
    <line x1="620" y1="205" x2="620" y2="235"/>
    <line x1="680" y1="205" x2="680" y2="235"/>
    <line x1="740" y1="205" x2="740" y2="235"/>
    <line x1="800" y1="205" x2="800" y2="235"/>
    <line x1="860" y1="205" x2="860" y2="235"/>
    <line x1="920" y1="205" x2="920" y2="235"/>
    <line x1="980" y1="205" x2="980" y2="235"/>
    <line x1="1040" y1="205" x2="1040" y2="235"/>
    <line x1="1100" y1="205" x2="1100" y2="235"/>
    <line x1="1160" y1="205" x2="1160" y2="235"/>
    <line x1="1220" y1="205" x2="1220" y2="235"/>
    <line x1="1280" y1="205" x2="1280" y2="235"/>
    <line x1="1340" y1="205" x2="1340" y2="235"/>
    <line x1="1400" y1="205" x2="1400" y2="235"/>
    <line x1="1460" y1="205" x2="1460" y2="235"/>
    <line x1="1520" y1="205" x2="1520" y2="235"/>
  </g>

  <!-- Row 6: jam.every(1, 1/2) - Purple (beats offset by half) -->
  <rect x="140" y="245" width="1440" height="40" fill="#0f3460" fill-opacity="0.3"/>
  <text x="130" y="270" text-anchor="end" font-family="monospace" font-size="11" fill="#a55eea">every(1, 1/2)</text>
  <g stroke="#a55eea" stroke-width="3">
    <line x1="230" y1="250" x2="230" y2="280"/>
    <line x1="410" y1="250" x2="410" y2="280"/>
    <line x1="590" y1="250" x2="590" y2="280"/>
    <line x1="770" y1="250" x2="770" y2="280"/>
    <line x1="950" y1="250" x2="950" y2="280"/>
    <line x1="1130" y1="250" x2="1130" y2="280"/>
    <line x1="1310" y1="250" x2="1310" y2="280"/>
    <line x1="1490" y1="250" x2="1490" y2="280"/>
  </g>

  <!-- Row 7: jam.every(1/4, 1/8) - Pink (swing sixteenths) -->
  <rect x="140" y="290" width="1440" height="40" fill="#1a1a2e" fill-opacity="0.5"/>
  <text x="130" y="315" text-anchor="end" font-family="monospace" font-size="11" fill="#ff6b9d">every(1/4, 1/8)</text>
  <g stroke="#ff6b9d" stroke-width="1.5">
    <line x1="163" y1="295" x2="163" y2="325"/>
    <line x1="208" y1="295" x2="208" y2="325"/>
    <line x1="253" y1="295" x2="253" y2="325"/>
    <line x1="298" y1="295" x2="298" y2="325"/>
    <line x1="343" y1="295" x2="343" y2="325"/>
    <line x1="388" y1="295" x2="388" y2="325"/>
    <line x1="433" y1="295" x2="433" y2="325"/>
    <line x1="478" y1="295" x2="478" y2="325"/>
    <line x1="523" y1="295" x2="523" y2="325"/>
    <line x1="568" y1="295" x2="568" y2="325"/>
    <line x1="613" y1="295" x2="613" y2="325"/>
    <line x1="658" y1="295" x2="658" y2="325"/>
    <line x1="703" y1="295" x2="703" y2="325"/>
    <line x1="748" y1="295" x2="748" y2="325"/>
    <line x1="793" y1="295" x2="793" y2="325"/>
    <line x1="838" y1="295" x2="838" y2="325"/>
    <line x1="883" y1="295" x2="883" y2="325"/>
    <line x1="928" y1="295" x2="928" y2="325"/>
    <line x1="973" y1="295" x2="973" y2="325"/>
    <line x1="1018" y1="295" x2="1018" y2="325"/>
    <line x1="1063" y1="295" x2="1063" y2="325"/>
    <line x1="1108" y1="295" x2="1108" y2="325"/>
    <line x1="1153" y1="295" x2="1153" y2="325"/>
    <line x1="1198" y1="295" x2="1198" y2="325"/>
    <line x1="1243" y1="295" x2="1243" y2="325"/>
    <line x1="1288" y1="295" x2="1288" y2="325"/>
    <line x1="1333" y1="295" x2="1333" y2="325"/>
    <line x1="1378" y1="295" x2="1378" y2="325"/>
    <line x1="1423" y1="295" x2="1423" y2="325"/>
    <line x1="1468" y1="295" x2="1468" y2="325"/>
    <line x1="1513" y1="295" x2="1513" y2="325"/>
    <line x1="1558" y1="295" x2="1558" y2="325"/>
  </g>

  <!-- Row 8: jam.every(3/4) - Teal (dotted quarter) -->
  <rect x="140" y="335" width="1440" height="40" fill="#0f3460" fill-opacity="0.3"/>
  <text x="130" y="360" text-anchor="end" font-family="monospace" font-size="11" fill="#00d2d3">every(3/4)</text>
  <g stroke="#00d2d3" stroke-width="2">
    <line x1="140" y1="340" x2="140" y2="370"/>
    <line x1="275" y1="340" x2="275" y2="370"/>
    <line x1="410" y1="340" x2="410" y2="370"/>
    <line x1="545" y1="340" x2="545" y2="370"/>
    <line x1="680" y1="340" x2="680" y2="370"/>
    <line x1="815" y1="340" x2="815" y2="370"/>
    <line x1="950" y1="340" x2="950" y2="370"/>
    <line x1="1085" y1="340" x2="1085" y2="370"/>
    <line x1="1220" y1="340" x2="1220" y2="370"/>
    <line x1="1355" y1="340" x2="1355" y2="370"/>
    <line x1="1490" y1="340" x2="1490" y2="370"/>
  </g>

</svg>
